<?xml version="1.0" encoding="UTF-8" standalone="no"?><svg width="963" height="151" viewBox="0 0 963 151" fill="none" xmlns="http://www.w3.org/2000/svg">
<g clip-path="url(#clip0_13_35)">
<path d="M186.86 75.8417C189.798 98.8976 192.525 120.544 195.356 142.168C195.691 144.759 195.155 145.673 192.254 145.818C174.783 146.686 174.793 146.755 168.478 130.846C165.848 124.227 163.286 117.581 160.486 111.028C159.869 109.951 159.642 108.7 159.84 107.479C160.039 106.259 160.652 105.14 161.579 104.306C169.843 95.2777 177.892 86.0052 186.86 75.8417Z" fill="#00A587"/>
<path d="M84.1747 95.1655C86.6767 107.857 89.145 119.785 91.3184 131.767C91.9891 135.476 95.0077 140.188 92.4252 142.696C90.1982 144.851 85.2546 141.802 81.4547 141.94C71.3595 142.317 66.6607 137.651 65.0207 127.854C64.0581 122.102 63.6321 118.119 68.4516 113.664C74.0774 107.825 79.3286 101.647 84.1747 95.1655V95.1655Z" fill="#00A587"/>
<path d="M112.68 118.314C112.68 111.186 112.569 104.059 112.734 96.9342C112.797 94.136 112.006 93.1922 108.984 93.0932C88.369 92.4222 67.7583 91.6083 47.1521 90.6513C43.9156 90.5028 42.6377 91.407 41.9502 94.555C38.7707 109.134 35.1619 123.626 32.0562 138.222C31.1842 142.32 29.5945 143.831 25.2378 143.366C20.4038 142.873 15.5373 142.763 10.6853 143.036C7.02954 143.217 6.32523 141.716 6.3789 138.585C6.69416 116.694 7.16037 94.8025 6.94572 72.9181C6.90613 66.1838 9.19198 59.6359 13.4288 54.3467C24.832 38.755 35.8159 22.8829 46.8636 7.05037C47.4595 5.96625 48.3973 5.10196 49.5357 4.58774C50.6742 4.07352 51.9516 3.93718 53.1756 4.19928C94.3679 8.53525 135.576 12.7359 176.8 16.8013C179.378 17.1054 181.84 18.0315 183.967 19.4973C208.497 35.1813 232.984 50.9215 257.638 66.4141C261.327 68.724 261.428 70.0439 257.883 72.1327C257.12 72.5383 256.438 73.0772 255.871 73.7232C248.77 82.7482 240.443 82.3424 230.381 78.343C218.22 73.522 205.395 70.3244 192.925 66.2261C191.738 65.7527 190.451 65.5735 189.178 65.7041C187.904 65.8347 186.682 66.2712 185.62 66.9751C174.15 73.9839 162.627 80.907 151.052 87.7442C150.009 88.2936 149.119 89.0852 148.458 90.0501C147.797 91.0151 147.385 92.1242 147.259 93.2813C144.72 108.328 141.815 123.31 139.481 138.396C138.81 142.719 137.244 144.089 132.877 143.788C127.332 143.466 121.772 143.457 116.225 143.762C112.935 143.907 112.093 142.772 112.2 139.687C112.415 132.562 112.268 125.428 112.268 118.301L112.68 118.314Z" fill="#00A587"/>
<path d="M359.043 75.1456C367.343 62.8271 379.34 59.2705 393.198 61.1099C400.89 61.7347 408.049 65.2285 413.209 70.8762C418.369 76.5239 421.139 83.8983 420.954 91.4901C421.485 107.178 421 122.901 421.233 138.604C421.291 142.63 419.011 142.382 416.284 142.42C413.297 142.447 410.912 142.596 410.993 138.287C411.249 124.931 411.121 111.574 411.055 98.237C411.006 95.497 410.791 92.7623 410.412 90.0475C407.956 70.757 390.739 67.5324 377.831 71.8064C369.686 74.4777 364.55 82.5718 364.442 92.8715C364.287 107.398 364.295 121.926 364.465 136.456C364.512 140.428 363.938 142.561 359.008 142.561C353.997 142.561 353.543 140.218 353.578 136.364C353.702 122.626 353.849 108.888 353.578 95.1497C353.19 76.7903 340.228 66.8188 322.983 71.2684C318.785 72.3192 315.042 74.672 312.309 77.9785C309.575 81.2851 307.996 85.3697 307.806 89.6278C306.648 105.286 306.448 120.999 307.205 136.681C307.271 142.924 304.071 142.672 299.835 142.405C298.001 142.294 296.732 141.829 296.795 139.707C297.268 122.458 295.503 105.144 297.718 87.9601C299.424 74.7143 306.666 65.1053 320.283 62.0104C334.836 58.6828 348.26 60.7702 357.841 73.6878C358.143 74.0809 358.512 74.493 359.043 75.1456Z" fill="#03000C"/>
<path d="M888.212 74.7448C893.367 68.6684 900.249 64.2445 907.976 62.0397C915.703 59.8349 923.923 59.9496 931.583 62.3691C951.236 67.5896 961.204 84.1745 959.656 107.873C959.232 115.668 956.447 123.159 951.659 129.383C946.87 135.607 940.299 140.279 932.789 142.798C924.979 145.431 916.558 145.771 908.555 143.775C900.552 141.78 893.312 137.535 887.719 131.559C881.151 124.039 877.605 114.414 877.751 104.499C877.573 73.1154 877.705 41.7277 877.658 10.3439C877.658 6.83302 878.065 4.1846 882.673 4.08157C887.459 3.97472 888.278 6.4552 888.262 10.3896C888.157 31.3707 888.212 52.3518 888.212 74.7448ZM888.212 102.736C887.622 128.537 909.393 140.47 931.222 132.83C944.735 128.102 952.101 112.444 949.246 96.1953C947.121 84.0905 941.369 74.7715 928.565 71.3905C905.48 65.2427 888.173 78.79 888.212 102.732V102.736Z" fill="#03000C"/>
<path d="M840.906 74.9434C840.906 52.4053 840.941 31.2601 840.867 10.1188C840.867 6.52017 841.371 4.01295 845.995 4.07019C849.811 4.13125 851.309 5.42493 851.293 9.29448C851.161 41.308 851.506 73.3215 851.056 105.327C850.723 129.155 833.164 145.069 808.806 144.698C785.81 144.351 769.124 127.266 769.011 103.946C768.907 82.194 779.193 66.7425 797.779 62.2165C813.794 58.305 828.421 60.9496 840.906 74.9434ZM809.978 134.956C828.867 134.983 840.863 122.5 840.906 102.771C840.949 82.5107 829.111 70.0244 809.916 70.074C791.065 70.1236 779.274 82.5833 779.224 102.545C779.162 122.244 791.186 134.925 809.978 134.952V134.956Z" fill="#03000C"/>
<path d="M649.393 76.5432C649.393 54.3333 649.455 32.8408 649.338 11.3484C649.319 7.57806 650.079 5.34564 654.567 5.48684C658.123 5.5975 659.52 6.89118 659.508 10.4478C659.388 43.0147 659.814 75.5891 659.205 108.141C658.786 130.572 641.146 146.214 618.092 146.107C612.829 146.248 607.591 145.36 602.68 143.493C597.77 141.626 593.285 138.819 589.486 135.233C585.687 131.648 582.649 127.356 580.549 122.606C578.449 117.856 577.329 112.743 577.254 107.564C576.412 86.7131 584.988 70.9754 601.596 65.1253C619.407 58.8516 635.755 61.2367 649.393 76.5432ZM618.565 136.361C637.225 136.273 649.594 123.207 649.381 103.851C649.14 83.7137 637.051 71.3036 617.843 71.4753C599.141 71.6432 587.323 84.393 587.443 104.271C587.563 123.901 599.73 136.449 618.565 136.361V136.361Z" fill="#03000C"/>
<path d="M716.062 144.733C704.95 144.653 695.024 141.913 688.373 132.384C686.631 129.892 684.354 126.908 688.334 124.32C691.697 122.134 693.938 123.496 696.335 126.45C700.776 131.318 706.817 134.493 713.399 135.419C719.98 136.345 726.683 134.962 732.333 131.514C734.218 130.387 735.74 128.758 736.723 126.816C737.706 124.874 738.11 122.697 737.887 120.538C737.757 118.461 736.98 116.472 735.662 114.844C734.343 113.216 732.547 112.026 730.518 111.437C722.932 108.965 715.186 106.999 707.331 105.553C704.03 104.785 700.801 103.746 697.677 102.446C694.823 101.243 692.288 99.4112 690.268 97.0918C688.247 94.7724 686.795 92.0274 686.023 89.0685C685.251 86.1096 685.18 83.0157 685.815 80.0255C686.45 77.0353 687.775 74.2286 689.687 71.8218C699.679 57.9502 734.559 55.4582 745.067 73.4551C746.428 75.7867 749.457 78.3893 745.505 80.9766C742.134 83.1862 739.687 82.6061 737.08 79.0037C729.866 68.9749 710.399 66.9524 700.819 74.8327C699.068 76.0039 697.695 77.6431 696.86 79.5571C696.025 81.4712 695.764 83.5802 696.107 85.6355C696.45 87.6908 697.384 89.6067 698.797 91.1572C700.211 92.7077 702.046 93.8282 704.085 94.3865C710.473 96.5579 717.23 97.6951 723.827 99.2712C728.512 100.276 733.034 101.913 737.263 104.137C740.634 105.798 743.471 108.345 745.46 111.497C747.448 114.648 748.51 118.28 748.527 121.99C748.544 125.699 747.517 129.341 745.558 132.51C743.599 135.679 740.785 138.252 737.43 139.944C730.894 143.452 723.498 145.11 716.062 144.733V144.733Z" fill="#03000C"/>
<path d="M558.787 116.272C558.787 123.336 558.593 130.392 558.865 137.463C559.012 141.279 557.849 142.611 553.823 142.493C550.15 142.382 548.393 141.699 548.447 137.585C548.672 124.439 548.637 111.288 548.505 98.1416C548.295 78.084 533.448 66.6852 513.597 71.2111C508.259 72.3333 503.469 75.2141 500.02 79.3773C496.57 83.5405 494.668 88.7369 494.627 94.1079C494.037 108.228 494.212 122.347 494.309 136.467C494.336 140.436 493.785 142.493 488.879 142.55C483.677 142.611 483.557 140.073 483.681 136.356C484.189 121.473 482.622 106.526 484.531 91.6847C487.122 71.5088 501.546 60.1635 523.426 60.7053C527.942 60.6204 532.43 61.412 536.635 63.0349C540.84 64.6579 544.678 67.0803 547.93 70.1637C551.183 73.2472 553.786 76.9311 555.59 81.0049C557.394 85.0787 558.365 89.4625 558.446 93.9057C558.95 101.328 558.528 108.789 558.528 116.261L558.787 116.272Z" fill="#03000C"/>
<path d="M457.551 102.946C457.551 114.314 457.396 125.683 457.636 137.047C457.722 141.035 456.686 142.447 452.346 142.496C447.637 142.55 447.269 140.432 447.304 136.772C447.42 114.433 447.385 92.0892 447.339 69.7458C447.339 66.1891 447.23 63.0943 452.381 62.9798C457.532 62.8653 457.652 65.735 457.617 69.4328C457.485 80.6065 457.551 91.7763 457.551 102.946Z" fill="#03000C"/>
<path d="M443.753 38.2589C443.785 35.9954 444.716 33.8343 446.347 32.2375C447.978 30.6408 450.179 29.7353 452.479 29.7146C453.67 29.6829 454.853 29.8988 455.953 30.3484C457.053 30.798 458.043 31.471 458.86 32.3234C459.677 33.1757 460.302 34.1883 460.693 35.2946C461.085 36.401 461.235 37.5763 461.133 38.7435C461.016 40.9754 460.016 43.0737 458.347 44.5897C456.678 46.1057 454.473 46.919 452.202 46.8556C449.931 46.7923 447.776 45.8574 446.197 44.2509C444.618 42.6443 443.741 40.4937 443.753 38.2589V38.2589Z" fill="#03000C"/>
</g>
<defs>
<clipPath id="clip0_13_35">
<rect width="962.798" height="151" fill="white"/>
</clipPath>
</defs>
</svg>
